# xmcd CD database file
#
# Track frame offsets:
#	150
#	37775
#	61037
#	104050
#	124375
#	164375
#	188700
#	209650
#	236662
#	254062
#
# Disc length: 3628 seconds
#
# Revision: 0
# Processed by: cddbd v1.5.2PL0 Copyright (c) Steve Scherf et al.
# Submitted via: CDex 1.51
#
DISCID=920e2a0a
DTITLE=Margie Evans - Blues Classics
DYEAR=1983
DGENRE=Blues
TTITLE0=Mistreated Woman
TTITLE1=It's A Shame
TTITLE2=Your Love Is Painful 
TTITLE3=Two Lovers In One
TTITLE4=Blue Blue Blues
TTITLE5=Don't Throw No Stones At Me
TTITLE6=Another Blues Day
TTITLE7=Come To Me
TTITLE8=Let The Telephone Ring
TTITLE9=Chilly Waters
EXTD=YEAR: 1983
EXTT0=
EXTT1=
EXTT2=
EXTT3=
EXTT4=
EXTT5=
EXTT6=
EXTT7=
EXTT8=
EXTT9=
PLAYORDER=
